<svg width="1023" height="204" viewBox="0 0 1023 204" fill="none" xmlns="http://www.w3.org/2000/svg">
<path d="M61.632 131.72C61.056 131.72 60.48 131.576 59.904 131.288C59.328 131.096 58.896 130.76 58.608 130.28L26.208 56.984H25.776L26.064 114.152C26.16 115.976 26.304 117.752 26.496 119.48C26.784 121.112 27.552 122.504 28.8 123.656C30.048 124.712 32.16 125.24 35.136 125.24C36.192 125.24 37.056 125.336 37.728 125.528C38.4 125.72 38.784 126.632 38.88 128.264C38.88 129.032 38.64 129.752 38.16 130.424C37.776 131.096 37.152 131.432 36.288 131.432C34.272 131.336 32.64 131.24 31.392 131.144C30.144 131.144 28.944 131.096 27.792 131C26.64 131 25.104 131 23.184 131C20.304 131 17.952 131 16.128 131C14.4 131.096 12 131.24 8.928 131.432C7.968 131.432 7.296 131.096 6.912 130.424C6.528 129.752 6.336 129.032 6.336 128.264C6.432 126.632 6.816 125.72 7.488 125.528C8.16 125.336 8.976 125.24 9.936 125.24C13.008 125.24 15.12 124.712 16.272 123.656C17.52 122.504 18.288 121.112 18.576 119.48C18.864 117.752 19.008 115.976 19.008 114.152L19.296 56.984C19.296 53.912 18.96 51.656 18.288 50.216C17.616 48.68 16.56 47.624 15.12 47.048C13.68 46.376 11.856 45.848 9.648 45.464C8.304 45.176 7.344 44.936 6.768 44.744C6.288 44.552 6.048 43.688 6.048 42.152C6.048 40.52 6.624 39.656 7.776 39.56C8.928 39.368 10.272 39.272 11.808 39.272C16.512 39.272 20.64 39.656 24.192 40.424C27.84 41.192 31.008 42.68 33.696 44.888C36.384 47 38.592 50.216 40.32 54.536L65.088 110.12H65.52L93.888 40.136H102.096C104.976 40.136 107.76 40.088 110.448 39.992C113.232 39.896 116.16 39.8 119.232 39.704C120.192 39.704 120.864 40.04 121.248 40.712C121.632 41.384 121.824 42.104 121.824 42.872C121.728 44.504 121.344 45.416 120.672 45.608C120 45.8 119.184 45.896 118.224 45.896C115.248 45.896 113.088 46.472 111.744 47.624C110.496 48.68 109.728 50.072 109.44 51.8C109.152 53.432 108.96 55.16 108.864 56.984V114.152C108.96 115.976 109.152 117.752 109.44 119.48C109.728 121.112 110.496 122.504 111.744 123.656C113.088 124.712 115.248 125.24 118.224 125.24C119.184 125.24 120 125.336 120.672 125.528C121.344 125.72 121.728 126.632 121.824 128.264C121.824 129.032 121.632 129.752 121.248 130.424C120.864 131.096 120.192 131.432 119.232 131.432C116.16 131.24 113.232 131.096 110.448 131C107.664 131 104.832 131 101.952 131C96.384 131 90.48 131.144 84.24 131.432C83.28 131.432 82.608 131.096 82.224 130.424C81.84 129.752 81.648 129.032 81.648 128.264C81.744 126.632 82.128 125.72 82.8 125.528C83.472 125.336 84.288 125.24 85.248 125.24C88.32 125.24 90.48 124.712 91.728 123.656C92.976 122.504 93.744 121.112 94.032 119.48C94.416 117.752 94.608 115.976 94.608 114.152V56.984H94.176L64.512 130.28C64.32 130.76 63.936 131.096 63.36 131.288C62.784 131.576 62.208 131.72 61.632 131.72ZM147.661 132.728C141.805 132.728 137.101 131.048 133.549 127.688C130.093 124.328 128.365 120.296 128.365 115.592C128.365 110.696 129.613 106.856 132.109 104.072C134.701 101.288 138.061 99.224 142.189 97.88C146.413 96.536 150.973 95.624 155.869 95.144C160.861 94.664 165.709 94.28 170.413 93.992V82.616C170.413 78.104 169.261 74.6 166.957 72.104C164.749 69.512 160.957 68.216 155.581 68.216C152.893 68.216 150.349 69.08 147.949 70.808C145.645 72.536 144.493 75.032 144.493 78.296C144.493 79.832 144.877 81.128 145.645 82.184C146.413 83.24 147.181 84.056 147.949 84.632C148.717 85.208 149.101 85.592 149.101 85.784C149.101 86.168 148.525 86.888 147.373 87.944C146.317 88.904 144.829 89.384 142.909 89.384C139.933 89.384 137.629 88.28 135.997 86.072C134.365 83.864 133.549 81.416 133.549 78.728C133.549 75.08 134.653 72.2 136.861 70.088C139.165 67.976 142.093 66.44 145.645 65.48C149.197 64.52 152.797 64.04 156.445 64.04C160.765 64.04 164.941 64.568 168.973 65.624C173.101 66.68 176.461 68.696 179.053 71.672C181.741 74.648 183.085 79.112 183.085 85.064V118.616C183.181 119.576 183.421 120.728 183.805 122.072C184.189 123.416 184.909 124.616 185.965 125.672C187.117 126.632 188.653 127.112 190.573 127.112C191.245 127.112 191.773 127.256 192.157 127.544C192.541 127.736 192.733 128.36 192.733 129.416C192.733 130.28 192.253 130.952 191.293 131.432C190.333 131.912 189.229 132.248 187.981 132.44C186.733 132.632 185.677 132.728 184.813 132.728C181.261 132.728 178.093 131.72 175.309 129.704C172.525 127.592 170.893 124.712 170.413 121.064C168.301 124.904 165.133 127.832 160.909 129.848C156.781 131.768 152.365 132.728 147.661 132.728ZM152.269 124.952C155.533 124.952 158.509 124.136 161.197 122.504C163.981 120.872 166.189 118.664 167.821 115.88C169.549 113 170.413 109.832 170.413 106.376V98.168C160.525 98.84 153.469 100.424 149.245 102.92C145.021 105.416 142.909 109.496 142.909 115.16C142.909 121.688 146.029 124.952 152.269 124.952ZM201.962 131.432C201.29 131.432 200.714 131.144 200.234 130.568C199.85 129.896 199.658 129.224 199.658 128.552C199.85 127.112 200.234 126.344 200.81 126.248C201.386 126.056 202.154 125.96 203.114 125.96C205.802 125.96 207.626 125.528 208.586 124.664C209.546 123.704 210.074 122.456 210.17 120.92C210.362 119.384 210.458 117.8 210.458 116.168V83.192C210.458 81.464 210.362 79.88 210.17 78.44C210.074 76.904 209.546 75.704 208.586 74.84C207.626 73.88 205.802 73.4 203.114 73.4C202.25 73.4 201.434 73.304 200.666 73.112C199.994 72.824 199.658 71.96 199.658 70.52C199.658 69.08 200.426 68.216 201.962 67.928C206.378 67.256 209.738 66.584 212.042 65.912C214.442 65.24 216.218 64.664 217.37 64.184C218.618 63.704 219.722 63.416 220.682 63.32C221.45 63.224 222.074 63.368 222.554 63.752C223.13 64.136 223.418 64.904 223.418 66.056V74.984H223.85C227.114 71.816 230.474 69.224 233.93 67.208C237.386 65.096 240.554 64.04 243.434 64.04C246.794 64.04 249.338 65.288 251.066 67.784C252.89 70.28 253.802 72.92 253.802 75.704C253.802 78.104 253.034 80.456 251.498 82.76C249.962 84.968 247.658 86.072 244.586 86.072C243.05 86.072 241.802 85.784 240.842 85.208C239.978 84.536 239.498 84.056 239.402 83.768C239.402 83.576 239.834 83 240.698 82.04C241.658 81.08 242.138 79.88 242.138 78.44C242.138 76.712 241.658 75.32 240.698 74.264C239.834 73.208 238.634 72.68 237.098 72.68C235.466 72.68 233.354 73.496 230.762 75.128C228.266 76.76 225.866 78.728 223.562 81.032V116.168C223.562 117.8 223.61 119.384 223.706 120.92C223.898 122.456 224.474 123.704 225.434 124.664C226.49 125.528 228.362 125.96 231.05 125.96C231.914 125.96 232.634 126.056 233.21 126.248C233.882 126.344 234.266 127.112 234.362 128.552C234.362 129.224 234.17 129.896 233.786 130.568C233.402 131.144 232.826 131.432 232.058 131.432C229.274 131.24 226.682 131.096 224.282 131C221.978 131 219.53 131 216.938 131C214.346 131 211.898 131 209.594 131C207.29 131.096 204.746 131.24 201.962 131.432ZM260.71 131.432C260.038 131.432 259.462 131.144 258.982 130.568C258.598 129.896 258.406 129.224 258.406 128.552C258.502 127.112 258.838 126.344 259.414 126.248C260.086 126.056 260.854 125.96 261.718 125.96C264.406 125.96 266.23 125.528 267.19 124.664C268.246 123.704 268.822 122.456 268.918 120.92C269.11 119.384 269.206 117.8 269.206 116.168V45.896C269.206 44.168 269.11 42.584 268.918 41.144C268.822 39.608 268.294 38.408 267.334 37.544C266.374 36.584 264.55 36.104 261.862 36.104C260.998 36.104 260.182 36.008 259.414 35.816C258.742 35.528 258.406 34.664 258.406 33.224C258.406 31.784 259.174 30.92 260.71 30.632C265.126 29.96 268.486 29.288 270.79 28.616C273.19 27.944 275.014 27.368 276.262 26.888C277.51 26.408 278.614 26.12 279.574 26.024C280.342 25.928 280.966 26.072 281.446 26.456C282.022 26.84 282.31 27.608 282.31 28.76V116.168C282.31 117.8 282.358 119.384 282.454 120.92C282.646 122.456 283.222 123.704 284.182 124.664C285.238 125.528 287.11 125.96 289.798 125.96C290.662 125.96 291.382 126.056 291.958 126.248C292.63 126.344 293.014 127.112 293.11 128.552C293.11 129.224 292.918 129.896 292.534 130.568C292.15 131.144 291.574 131.432 290.806 131.432C288.022 131.24 285.43 131.096 283.03 131C280.726 131 278.278 131 275.686 131C273.094 131 270.646 131 268.342 131C266.038 131.096 263.494 131.24 260.71 131.432ZM334.913 132.728C327.521 132.728 321.281 131.144 316.193 127.976C311.201 124.808 307.457 120.584 304.961 115.304C302.465 110.024 301.217 104.264 301.217 98.024C301.217 93.8 301.937 89.72 303.377 85.784C304.913 81.752 307.073 78.104 309.857 74.84C312.641 71.48 316.001 68.84 319.937 66.92C323.873 65 328.337 64.04 333.328 64.04C342.161 64.04 348.785 66.344 353.201 70.952C357.713 75.464 360.305 81.224 360.977 88.232C360.977 91.592 360.017 93.8 358.097 94.856C356.273 95.912 353.873 96.44 350.897 96.44H315.905C315.905 102.008 316.673 107 318.209 111.416C319.745 115.736 322.145 119.192 325.409 121.784C328.769 124.28 333.185 125.528 338.657 125.528C342.689 125.528 346.145 124.664 349.025 122.936C351.905 121.208 354.689 118.184 357.377 113.864C358.145 112.904 359.201 112.856 360.545 113.72C361.313 114.104 361.793 114.728 361.985 115.592C362.177 116.36 362.081 117.032 361.697 117.608C358.721 122.312 354.977 126.008 350.465 128.696C345.953 131.384 340.769 132.728 334.913 132.728ZM315.905 90.968H339.377C341.681 90.968 343.505 90.536 344.849 89.672C346.289 88.712 347.057 87.128 347.153 84.92C347.153 80.792 346.001 77.144 343.697 73.976C341.489 70.712 338.033 69.08 333.328 69.08C328.529 69.08 324.497 71 321.233 74.84C318.065 78.68 316.289 84.056 315.905 90.968ZM374.65 131.432C373.978 131.432 373.402 131.144 372.922 130.568C372.538 129.896 372.346 129.224 372.346 128.552C372.538 127.112 372.922 126.344 373.498 126.248C374.074 126.056 374.842 125.96 375.802 125.96C378.49 125.96 380.314 125.528 381.274 124.664C382.234 123.704 382.762 122.456 382.858 120.92C383.05 119.384 383.146 117.8 383.146 116.168V83.192C383.146 81.464 383.05 79.88 382.858 78.44C382.762 76.904 382.234 75.704 381.274 74.84C380.314 73.88 378.49 73.4 375.802 73.4C374.938 73.4 374.122 73.304 373.354 73.112C372.682 72.824 372.346 71.96 372.346 70.52C372.346 69.08 373.114 68.216 374.65 67.928C379.066 67.256 382.426 66.584 384.73 65.912C387.13 65.24 388.954 64.664 390.202 64.184C391.45 63.704 392.554 63.416 393.514 63.32C394.282 63.224 394.906 63.368 395.386 63.752C395.962 64.136 396.25 64.904 396.25 66.056V116.168C396.25 117.8 396.298 119.384 396.394 120.92C396.586 122.456 397.162 123.704 398.122 124.664C399.178 125.528 401.05 125.96 403.738 125.96C404.602 125.96 405.322 126.056 405.898 126.248C406.57 126.344 406.954 127.112 407.05 128.552C407.05 129.224 406.858 129.896 406.474 130.568C406.09 131.144 405.514 131.432 404.746 131.432C401.962 131.24 399.37 131.096 396.97 131C394.666 131 392.218 131 389.626 131C387.034 131 384.586 131 382.282 131C379.978 131.096 377.434 131.24 374.65 131.432ZM388.906 47.336C386.218 47.336 383.962 46.52 382.138 44.888C380.314 43.16 379.402 41.048 379.402 38.552C379.402 36.344 380.506 34.376 382.714 32.648C384.922 30.92 387.418 30.056 390.202 30.056C392.602 30.056 394.57 30.92 396.106 32.648C397.642 34.28 398.41 36.392 398.41 38.984C398.41 41.288 397.498 43.256 395.674 44.888C393.85 46.52 391.594 47.336 388.906 47.336ZM445.363 132.728C439.987 132.728 434.995 131.288 430.387 128.408C425.779 125.528 422.083 121.496 419.299 116.312C416.515 111.128 415.123 105.128 415.123 98.312C415.123 92.36 416.515 86.792 419.299 81.608C422.179 76.328 426.115 72.104 431.107 68.936C436.195 65.672 441.955 64.04 448.387 64.04C451.459 64.04 454.483 64.424 457.459 65.192C460.435 65.864 462.979 66.824 465.091 68.072H465.523V46.04C465.523 44.312 465.427 42.728 465.235 41.288C465.139 39.752 464.611 38.552 463.651 37.688C462.691 36.728 460.867 36.248 458.179 36.248C457.315 36.248 456.499 36.152 455.731 35.96C455.059 35.672 454.723 34.808 454.723 33.368C454.723 31.928 455.491 31.064 457.027 30.776C461.443 30.104 464.803 29.432 467.107 28.76C469.507 28.088 471.331 27.512 472.579 27.032C473.827 26.552 474.931 26.264 475.891 26.168C476.659 26.072 477.283 26.216 477.763 26.6C478.339 26.984 478.627 27.752 478.627 28.904V117.752C478.627 123.416 482.371 126.248 489.859 126.248C490.915 126.248 491.587 126.536 491.875 127.112C492.163 127.592 492.307 128.072 492.307 128.552C492.307 129.896 491.491 130.712 489.859 131L466.963 132.584C466.291 132.584 465.907 132.296 465.811 131.72C465.715 131.144 465.667 130.472 465.667 129.704V123.944H465.235C462.835 126.44 459.811 128.552 456.163 130.28C452.611 131.912 449.011 132.728 445.363 132.728ZM450.259 125.528C453.907 125.528 456.931 124.808 459.331 123.368C461.731 121.832 463.795 120.152 465.523 118.328V80.312C465.043 78.68 464.131 77.048 462.787 75.416C461.539 73.688 459.811 72.248 457.603 71.096C455.491 69.848 452.899 69.224 449.827 69.224C444.259 69.224 439.555 71.864 435.715 77.144C431.875 82.328 429.955 89.624 429.955 99.032C429.955 103.544 430.675 107.864 432.115 111.992C433.651 116.024 435.907 119.288 438.883 121.784C441.859 124.28 445.651 125.528 450.259 125.528ZM532.35 132.728C524.958 132.728 518.718 131.144 513.63 127.976C508.638 124.808 504.894 120.584 502.398 115.304C499.902 110.024 498.654 104.264 498.654 98.024C498.654 93.8 499.374 89.72 500.814 85.784C502.35 81.752 504.51 78.104 507.294 74.84C510.078 71.48 513.438 68.84 517.374 66.92C521.31 65 525.774 64.04 530.766 64.04C539.598 64.04 546.222 66.344 550.638 70.952C555.15 75.464 557.742 81.224 558.414 88.232C558.414 91.592 557.454 93.8 555.534 94.856C553.71 95.912 551.31 96.44 548.334 96.44H513.342C513.342 102.008 514.11 107 515.646 111.416C517.182 115.736 519.582 119.192 522.846 121.784C526.206 124.28 530.622 125.528 536.094 125.528C540.126 125.528 543.582 124.664 546.462 122.936C549.342 121.208 552.126 118.184 554.814 113.864C555.582 112.904 556.638 112.856 557.982 113.72C558.75 114.104 559.23 114.728 559.422 115.592C559.614 116.36 559.518 117.032 559.134 117.608C556.158 122.312 552.414 126.008 547.902 128.696C543.39 131.384 538.206 132.728 532.35 132.728ZM513.342 90.968H536.814C539.118 90.968 540.942 90.536 542.286 89.672C543.726 88.712 544.494 87.128 544.59 84.92C544.59 80.792 543.438 77.144 541.134 73.976C538.926 70.712 535.47 69.08 530.766 69.08C525.966 69.08 521.934 71 518.67 74.84C515.502 78.68 513.726 84.056 513.342 90.968ZM635.254 133.88C625.27 133.88 617.59 132.152 612.214 128.696C606.838 125.144 604.15 119.96 604.15 113.144C604.15 109.688 605.302 106.856 607.606 104.648C610.006 102.344 613.078 101.192 616.822 101.192C619.318 101.288 621.046 101.912 622.006 103.064C623.062 104.216 623.59 105.08 623.59 105.656C623.59 105.848 623.158 106.184 622.294 106.664C621.43 107.048 620.566 107.816 619.702 108.968C618.838 110.024 618.406 111.704 618.406 114.008C618.406 118.328 619.75 121.784 622.438 124.376C625.126 126.872 629.398 128.12 635.254 128.12C639.382 128.12 642.886 127.352 645.766 125.816C648.742 124.184 650.998 122.12 652.534 119.624C654.07 117.032 654.838 114.392 654.838 111.704C654.838 107.672 653.686 104.36 651.382 101.768C649.078 99.176 646.054 96.968 642.31 95.144C638.662 93.224 634.774 91.4 630.646 89.672C626.518 87.944 622.582 85.976 618.838 83.768C615.19 81.56 612.166 78.824 609.766 75.56C607.366 72.2 606.118 68.024 606.022 63.032C605.926 56.984 607.222 52.088 609.91 48.344C612.598 44.504 616.342 41.72 621.142 39.992C625.942 38.168 631.27 37.256 637.126 37.256C641.446 37.256 645.67 37.88 649.798 39.128C654.022 40.376 657.478 42.344 660.166 45.032C662.95 47.624 664.342 51.08 664.342 55.4C664.342 58.856 663.142 61.736 660.742 64.04C658.438 66.248 655.414 67.352 651.67 67.352C649.174 67.16 647.398 66.536 646.342 65.48C645.382 64.328 644.902 63.464 644.902 62.888C644.902 62.6 645.478 62.264 646.63 61.88C647.782 61.4 648.934 60.632 650.086 59.576C651.238 58.424 651.814 56.744 651.814 54.536C651.814 50.888 650.422 48.104 647.638 46.184C644.854 44.168 641.398 43.16 637.27 43.16C631.03 43.16 626.47 44.648 623.59 47.624C620.806 50.504 619.414 53.768 619.414 57.416C619.414 60.968 620.374 63.848 622.294 66.056C624.214 68.264 627.094 70.424 630.934 72.536C635.254 74.84 639.622 77 644.038 79.016C648.454 80.936 652.534 83.096 656.278 85.496C660.118 87.896 663.19 90.92 665.494 94.568C667.798 98.12 668.95 102.728 668.95 108.392C668.95 113.288 667.414 117.656 664.342 121.496C661.366 125.336 657.334 128.36 652.246 130.568C647.158 132.776 641.494 133.88 635.254 133.88ZM715.019 132.728C708.299 132.728 702.395 131.144 697.307 127.976C692.315 124.808 688.427 120.68 685.643 115.592C682.859 110.504 681.467 105.08 681.467 99.32C681.467 93.656 682.475 88.616 684.491 84.2C686.507 79.784 689.147 76.088 692.411 73.112C695.771 70.136 699.419 67.88 703.355 66.344C707.291 64.808 711.179 64.04 715.019 64.04C721.739 64.04 727.595 65.624 732.587 68.792C737.675 71.96 741.611 76.088 744.395 81.176C747.179 86.264 748.571 91.688 748.571 97.448C748.571 103.112 747.515 108.152 745.403 112.568C743.387 116.984 740.699 120.68 737.339 123.656C734.075 126.632 730.475 128.888 726.539 130.424C722.603 131.96 718.763 132.728 715.019 132.728ZM715.019 127.4C719.723 127.4 723.419 126.008 726.107 123.224C728.891 120.44 730.859 116.792 732.011 112.28C733.259 107.672 733.883 102.728 733.883 97.448C733.883 92.36 733.259 87.704 732.011 83.48C730.763 79.256 728.747 75.848 725.963 73.256C723.179 70.664 719.531 69.368 715.019 69.368C710.315 69.368 706.571 70.76 703.787 73.544C701.003 76.232 699.035 79.832 697.883 84.344C696.731 88.76 696.155 93.656 696.155 99.032C696.155 104.024 696.731 108.68 697.883 113C699.131 117.32 701.147 120.824 703.931 123.512C706.715 126.104 710.411 127.4 715.019 127.4ZM778.645 132.728C772.789 132.728 768.085 131.048 764.533 127.688C761.077 124.328 759.349 120.296 759.349 115.592C759.349 110.696 760.597 106.856 763.093 104.072C765.685 101.288 769.045 99.224 773.173 97.88C777.397 96.536 781.957 95.624 786.853 95.144C791.845 94.664 796.693 94.28 801.397 93.992V82.616C801.397 78.104 800.245 74.6 797.941 72.104C795.733 69.512 791.941 68.216 786.565 68.216C783.877 68.216 781.333 69.08 778.933 70.808C776.629 72.536 775.477 75.032 775.477 78.296C775.477 79.832 775.861 81.128 776.629 82.184C777.397 83.24 778.165 84.056 778.933 84.632C779.701 85.208 780.085 85.592 780.085 85.784C780.085 86.168 779.509 86.888 778.357 87.944C777.301 88.904 775.813 89.384 773.893 89.384C770.917 89.384 768.613 88.28 766.981 86.072C765.349 83.864 764.533 81.416 764.533 78.728C764.533 75.08 765.637 72.2 767.845 70.088C770.149 67.976 773.077 66.44 776.629 65.48C780.181 64.52 783.781 64.04 787.429 64.04C791.749 64.04 795.925 64.568 799.957 65.624C804.085 66.68 807.445 68.696 810.037 71.672C812.725 74.648 814.069 79.112 814.069 85.064V118.616C814.165 119.576 814.405 120.728 814.789 122.072C815.173 123.416 815.893 124.616 816.949 125.672C818.101 126.632 819.637 127.112 821.557 127.112C822.229 127.112 822.757 127.256 823.141 127.544C823.525 127.736 823.717 128.36 823.717 129.416C823.717 130.28 823.237 130.952 822.277 131.432C821.317 131.912 820.213 132.248 818.965 132.44C817.717 132.632 816.661 132.728 815.797 132.728C812.245 132.728 809.077 131.72 806.293 129.704C803.509 127.592 801.877 124.712 801.397 121.064C799.285 124.904 796.117 127.832 791.893 129.848C787.765 131.768 783.349 132.728 778.645 132.728ZM783.253 124.952C786.517 124.952 789.493 124.136 792.181 122.504C794.965 120.872 797.173 118.664 798.805 115.88C800.533 113 801.397 109.832 801.397 106.376V98.168C791.509 98.84 784.453 100.424 780.229 102.92C776.005 105.416 773.893 109.496 773.893 115.16C773.893 121.688 777.013 124.952 783.253 124.952ZM832.947 131.432C832.275 131.432 831.699 131.144 831.219 130.568C830.835 129.896 830.643 129.224 830.643 128.552C830.835 127.112 831.219 126.344 831.795 126.248C832.371 126.056 833.139 125.96 834.099 125.96C836.787 125.96 838.611 125.528 839.571 124.664C840.531 123.704 841.059 122.456 841.155 120.92C841.347 119.384 841.443 117.8 841.443 116.168V83.192C841.443 81.464 841.347 79.88 841.155 78.44C841.059 76.904 840.531 75.704 839.571 74.84C838.611 73.88 836.787 73.4 834.099 73.4C833.235 73.4 832.419 73.304 831.651 73.112C830.979 72.824 830.643 71.96 830.643 70.52C830.643 69.08 831.411 68.216 832.947 67.928C837.363 67.256 840.723 66.584 843.027 65.912C845.427 65.24 847.203 64.664 848.355 64.184C849.603 63.704 850.707 63.416 851.667 63.32C852.435 63.224 853.059 63.368 853.539 63.752C854.115 64.136 854.403 64.904 854.403 66.056V74.984H854.835C858.099 71.816 861.459 69.224 864.915 67.208C868.371 65.096 871.539 64.04 874.419 64.04C877.779 64.04 880.323 65.288 882.051 67.784C883.875 70.28 884.787 72.92 884.787 75.704C884.787 78.104 884.019 80.456 882.483 82.76C880.947 84.968 878.643 86.072 875.571 86.072C874.035 86.072 872.787 85.784 871.827 85.208C870.963 84.536 870.483 84.056 870.387 83.768C870.387 83.576 870.819 83 871.683 82.04C872.643 81.08 873.123 79.88 873.123 78.44C873.123 76.712 872.643 75.32 871.683 74.264C870.819 73.208 869.619 72.68 868.083 72.68C866.451 72.68 864.339 73.496 861.747 75.128C859.251 76.76 856.851 78.728 854.547 81.032V116.168C854.547 117.8 854.595 119.384 854.691 120.92C854.883 122.456 855.459 123.704 856.419 124.664C857.475 125.528 859.347 125.96 862.035 125.96C862.899 125.96 863.619 126.056 864.195 126.248C864.867 126.344 865.251 127.112 865.347 128.552C865.347 129.224 865.155 129.896 864.771 130.568C864.387 131.144 863.811 131.432 863.043 131.432C860.259 131.24 857.667 131.096 855.267 131C852.963 131 850.515 131 847.923 131C845.331 131 842.883 131 840.579 131C838.275 131.096 835.731 131.24 832.947 131.432ZM926.1 132.728C918.708 132.728 912.468 131.144 907.38 127.976C902.388 124.808 898.644 120.584 896.148 115.304C893.652 110.024 892.404 104.264 892.404 98.024C892.404 93.8 893.124 89.72 894.564 85.784C896.1 81.752 898.26 78.104 901.044 74.84C903.828 71.48 907.188 68.84 911.124 66.92C915.06 65 919.524 64.04 924.516 64.04C933.348 64.04 939.972 66.344 944.388 70.952C948.9 75.464 951.492 81.224 952.164 88.232C952.164 91.592 951.204 93.8 949.284 94.856C947.46 95.912 945.06 96.44 942.084 96.44H907.092C907.092 102.008 907.86 107 909.396 111.416C910.932 115.736 913.332 119.192 916.596 121.784C919.956 124.28 924.372 125.528 929.844 125.528C933.876 125.528 937.332 124.664 940.212 122.936C943.092 121.208 945.876 118.184 948.564 113.864C949.332 112.904 950.388 112.856 951.732 113.72C952.5 114.104 952.98 114.728 953.172 115.592C953.364 116.36 953.268 117.032 952.884 117.608C949.908 122.312 946.164 126.008 941.652 128.696C937.14 131.384 931.956 132.728 926.1 132.728ZM907.092 90.968H930.564C932.868 90.968 934.692 90.536 936.036 89.672C937.476 88.712 938.244 87.128 938.34 84.92C938.34 80.792 937.188 77.144 934.884 73.976C932.676 70.712 929.22 69.08 924.516 69.08C919.716 69.08 915.684 71 912.42 74.84C909.252 78.68 907.476 84.056 907.092 90.968ZM990.173 132.728C982.781 132.728 976.589 131.432 971.597 128.84C966.701 126.152 964.253 122.312 964.253 117.32C964.253 114.536 965.069 112.28 966.701 110.552C968.429 108.824 970.637 107.96 973.325 107.96C975.053 107.96 976.445 108.44 977.501 109.4C978.653 110.264 979.229 110.888 979.229 111.272C979.229 111.56 978.653 112.232 977.501 113.288C976.445 114.248 975.917 115.832 975.917 118.04C975.917 120.728 977.165 122.984 979.661 124.808C982.253 126.536 986.141 127.4 991.325 127.4C995.837 127.4 999.341 126.44 1001.84 124.52C1004.43 122.504 1005.73 119.72 1005.73 116.168C1005.73 113.288 1004.77 111.08 1002.85 109.544C1001.02 107.912 998.621 106.616 995.645 105.656C992.765 104.696 989.645 103.736 986.285 102.776C983.021 101.816 979.901 100.616 976.925 99.176C973.949 97.736 971.501 95.768 969.581 93.272C967.757 90.68 966.845 87.272 966.845 83.048C966.845 78.728 968.141 75.176 970.733 72.392C973.325 69.608 976.637 67.544 980.669 66.2C984.701 64.76 988.781 64.04 992.909 64.04C996.461 64.04 999.821 64.568 1002.99 65.624C1006.16 66.584 1008.75 68.072 1010.77 70.088C1012.88 72.104 1013.93 74.648 1013.93 77.72C1013.93 80.12 1013.17 82.28 1011.63 84.2C1010.09 86.12 1007.98 87.08 1005.29 87.08C1003.57 87.08 1002.13 86.648 1000.97 85.784C999.917 84.824 999.389 84.152 999.389 83.768C999.389 83.576 999.725 83.24 1000.4 82.76C1001.17 82.184 1001.89 81.464 1002.56 80.6C1003.23 79.64 1003.57 78.44 1003.57 77C1003.37 74.216 1002.03 72.152 999.533 70.808C997.037 69.464 994.253 68.792 991.181 68.792C987.821 68.792 984.701 69.608 981.821 71.24C978.941 72.872 977.501 75.224 977.501 78.296C977.501 81.08 978.077 83.24 979.229 84.776C980.477 86.312 982.397 87.656 984.989 88.808C987.677 89.864 991.133 91.064 995.357 92.408C999.581 93.752 1003.28 95.144 1006.45 96.584C1009.71 98.024 1012.21 99.944 1013.93 102.344C1015.76 104.648 1016.67 107.816 1016.67 111.848C1016.67 115.88 1015.52 119.48 1013.21 122.648C1010.91 125.816 1007.74 128.312 1003.71 130.136C999.773 131.864 995.261 132.728 990.173 132.728Z" fill="#D9B88F"/>
<path d="M313.233 189.767C311.159 189.767 309.277 189.376 307.587 188.595C305.896 187.8 304.554 186.656 303.56 185.165C302.565 183.659 302.068 181.841 302.068 179.71C302.068 177.835 302.438 176.315 303.176 175.151C303.915 173.972 304.902 173.048 306.138 172.381C307.374 171.713 308.737 171.216 310.229 170.889C311.734 170.548 313.247 170.278 314.767 170.08C316.756 169.824 318.368 169.632 319.604 169.504C320.854 169.362 321.763 169.128 322.331 168.801C322.913 168.474 323.205 167.906 323.205 167.097V166.926C323.205 164.824 322.629 163.19 321.479 162.026C320.342 160.861 318.616 160.278 316.301 160.278C313.901 160.278 312.018 160.804 310.655 161.855C309.291 162.906 308.332 164.028 307.778 165.222L303.006 163.517C303.858 161.528 304.994 159.98 306.415 158.872C307.849 157.75 309.412 156.969 311.102 156.528C312.807 156.074 314.483 155.847 316.131 155.847C317.182 155.847 318.389 155.974 319.753 156.23C321.131 156.472 322.459 156.976 323.737 157.743C325.03 158.51 326.102 159.668 326.955 161.216C327.807 162.764 328.233 164.838 328.233 167.438V189H323.205V184.568H322.949C322.608 185.278 322.04 186.038 321.244 186.848C320.449 187.658 319.391 188.347 318.07 188.915C316.749 189.483 315.136 189.767 313.233 189.767ZM314 185.25C315.989 185.25 317.665 184.859 319.028 184.078C320.406 183.297 321.443 182.288 322.139 181.053C322.849 179.817 323.205 178.517 323.205 177.153V172.551C322.991 172.807 322.523 173.041 321.798 173.254C321.088 173.453 320.264 173.631 319.327 173.787C318.403 173.929 317.501 174.057 316.621 174.17C315.754 174.27 315.051 174.355 314.511 174.426C313.205 174.597 311.983 174.874 310.847 175.257C309.724 175.626 308.815 176.187 308.119 176.94C307.438 177.679 307.097 178.687 307.097 179.966C307.097 181.713 307.743 183.034 309.036 183.929C310.342 184.81 311.997 185.25 314 185.25ZM366.644 189.682C363.917 189.682 361.509 188.993 359.421 187.615C357.333 186.223 355.699 184.263 354.52 181.734C353.341 179.192 352.752 176.188 352.752 172.722C352.752 169.284 353.341 166.301 354.52 163.773C355.699 161.244 357.34 159.291 359.442 157.913C361.544 156.536 363.973 155.847 366.729 155.847C368.86 155.847 370.543 156.202 371.779 156.912C373.029 157.608 373.98 158.403 374.634 159.298C375.301 160.179 375.82 160.903 376.189 161.472H376.615V145.364H381.644V189H376.786V183.972H376.189C375.82 184.568 375.294 185.321 374.613 186.23C373.931 187.125 372.958 187.928 371.694 188.638C370.429 189.334 368.746 189.682 366.644 189.682ZM367.326 185.165C369.343 185.165 371.047 184.639 372.439 183.588C373.831 182.523 374.89 181.053 375.614 179.178C376.338 177.288 376.701 175.108 376.701 172.636C376.701 170.193 376.346 168.055 375.635 166.223C374.925 164.376 373.874 162.942 372.482 161.919C371.09 160.882 369.371 160.364 367.326 160.364C365.195 160.364 363.419 160.911 361.999 162.004C360.593 163.084 359.534 164.554 358.824 166.415C358.128 168.261 357.78 170.335 357.78 172.636C357.78 174.966 358.135 177.082 358.846 178.986C359.57 180.875 360.635 182.381 362.042 183.503C363.462 184.611 365.223 185.165 367.326 185.165ZM435.188 156.273L423.086 189H417.972L405.87 156.273H411.324L420.358 182.352H420.699L429.733 156.273H435.188ZM471.995 189.682C469.041 189.682 466.449 188.979 464.218 187.572C462.002 186.166 460.27 184.199 459.02 181.67C457.784 179.142 457.166 176.187 457.166 172.807C457.166 169.398 457.784 166.422 459.02 163.879C460.27 161.337 462.002 159.362 464.218 157.956C466.449 156.55 469.041 155.847 471.995 155.847C474.95 155.847 477.535 156.55 479.751 157.956C481.981 159.362 483.714 161.337 484.95 163.879C486.2 166.422 486.825 169.398 486.825 172.807C486.825 176.187 486.2 179.142 484.95 181.67C483.714 184.199 481.981 186.166 479.751 187.572C477.535 188.979 474.95 189.682 471.995 189.682ZM471.995 185.165C474.24 185.165 476.086 184.589 477.535 183.439C478.984 182.288 480.056 180.776 480.752 178.901C481.449 177.026 481.797 174.994 481.797 172.807C481.797 170.619 481.449 168.581 480.752 166.692C480.056 164.803 478.984 163.276 477.535 162.111C476.086 160.946 474.24 160.364 471.995 160.364C469.751 160.364 467.904 160.946 466.456 162.111C465.007 163.276 463.934 164.803 463.238 166.692C462.542 168.581 462.194 170.619 462.194 172.807C462.194 174.994 462.542 177.026 463.238 178.901C463.934 180.776 465.007 182.288 466.456 183.439C467.904 184.589 469.751 185.165 471.995 185.165ZM524.671 189.682C521.603 189.682 518.961 188.957 516.745 187.509C514.529 186.06 512.825 184.064 511.631 181.521C510.438 178.979 509.842 176.074 509.842 172.807C509.842 169.483 510.452 166.55 511.674 164.007C512.91 161.45 514.629 159.455 516.83 158.02C519.046 156.571 521.631 155.847 524.586 155.847C526.887 155.847 528.961 156.273 530.808 157.125C532.654 157.977 534.167 159.17 535.346 160.705C536.525 162.239 537.256 164.028 537.54 166.074H532.512C532.129 164.582 531.276 163.261 529.955 162.111C528.648 160.946 526.887 160.364 524.671 160.364C522.711 160.364 520.992 160.875 519.515 161.898C518.052 162.906 516.908 164.334 516.085 166.18C515.275 168.013 514.87 170.165 514.87 172.636C514.87 175.165 515.268 177.366 516.063 179.241C516.873 181.116 518.009 182.572 519.472 183.609C520.95 184.646 522.683 185.165 524.671 185.165C525.978 185.165 527.164 184.938 528.229 184.483C529.295 184.028 530.197 183.375 530.935 182.523C531.674 181.67 532.2 180.648 532.512 179.455H537.54C537.256 181.386 536.553 183.126 535.431 184.675C534.323 186.209 532.853 187.43 531.021 188.339C529.202 189.234 527.086 189.682 524.671 189.682ZM571.397 189.767C569.323 189.767 567.441 189.376 565.751 188.595C564.06 187.8 562.718 186.656 561.724 185.165C560.729 183.659 560.232 181.841 560.232 179.71C560.232 177.835 560.602 176.315 561.34 175.151C562.079 173.972 563.066 173.048 564.302 172.381C565.538 171.713 566.901 171.216 568.393 170.889C569.898 170.548 571.411 170.278 572.931 170.08C574.92 169.824 576.532 169.632 577.768 169.504C579.018 169.362 579.927 169.128 580.495 168.801C581.077 168.474 581.369 167.906 581.369 167.097V166.926C581.369 164.824 580.793 163.19 579.643 162.026C578.506 160.861 576.781 160.278 574.465 160.278C572.065 160.278 570.183 160.804 568.819 161.855C567.455 162.906 566.496 164.028 565.942 165.222L561.17 163.517C562.022 161.528 563.158 159.98 564.579 158.872C566.013 157.75 567.576 156.969 569.266 156.528C570.971 156.074 572.647 155.847 574.295 155.847C575.346 155.847 576.553 155.974 577.917 156.23C579.295 156.472 580.623 156.976 581.901 157.743C583.194 158.51 584.266 159.668 585.119 161.216C585.971 162.764 586.397 164.838 586.397 167.438V189H581.369V184.568H581.113C580.772 185.278 580.204 186.038 579.408 186.848C578.613 187.658 577.555 188.347 576.234 188.915C574.913 189.483 573.3 189.767 571.397 189.767ZM572.164 185.25C574.153 185.25 575.829 184.859 577.192 184.078C578.57 183.297 579.607 182.288 580.303 181.053C581.013 179.817 581.369 178.517 581.369 177.153V172.551C581.156 172.807 580.687 173.041 579.962 173.254C579.252 173.453 578.428 173.631 577.491 173.787C576.567 173.929 575.665 174.057 574.785 174.17C573.918 174.27 573.215 174.355 572.675 174.426C571.369 174.597 570.147 174.874 569.011 175.257C567.888 175.626 566.979 176.187 566.283 176.94C565.602 177.679 565.261 178.687 565.261 179.966C565.261 181.713 565.907 183.034 567.2 183.929C568.506 184.81 570.161 185.25 572.164 185.25ZM625.745 189.682C622.677 189.682 620.035 188.957 617.819 187.509C615.603 186.06 613.899 184.064 612.706 181.521C611.512 178.979 610.916 176.074 610.916 172.807C610.916 169.483 611.527 166.55 612.748 164.007C613.984 161.45 615.703 159.455 617.904 158.02C620.12 156.571 622.706 155.847 625.66 155.847C627.961 155.847 630.035 156.273 631.882 157.125C633.728 157.977 635.241 159.17 636.42 160.705C637.599 162.239 638.331 164.028 638.615 166.074H633.586C633.203 164.582 632.35 163.261 631.029 162.111C629.723 160.946 627.961 160.364 625.745 160.364C623.785 160.364 622.066 160.875 620.589 161.898C619.126 162.906 617.983 164.334 617.159 166.18C616.349 168.013 615.944 170.165 615.944 172.636C615.944 175.165 616.342 177.366 617.137 179.241C617.947 181.116 619.083 182.572 620.547 183.609C622.024 184.646 623.757 185.165 625.745 185.165C627.052 185.165 628.238 184.938 629.304 184.483C630.369 184.028 631.271 183.375 632.01 182.523C632.748 181.67 633.274 180.648 633.586 179.455H638.615C638.331 181.386 637.627 183.126 636.505 184.675C635.397 186.209 633.927 187.43 632.095 188.339C630.277 189.234 628.16 189.682 625.745 189.682ZM662.841 189V156.273H667.869V189H662.841ZM665.397 150.818C664.417 150.818 663.572 150.484 662.862 149.817C662.166 149.149 661.818 148.347 661.818 147.409C661.818 146.472 662.166 145.669 662.862 145.001C663.572 144.334 664.417 144 665.397 144C666.377 144 667.216 144.334 667.912 145.001C668.622 145.669 668.977 146.472 668.977 147.409C668.977 148.347 668.622 149.149 667.912 149.817C667.216 150.484 666.377 150.818 665.397 150.818ZM703.585 189.767C701.511 189.767 699.629 189.376 697.938 188.595C696.248 187.8 694.906 186.656 693.911 185.165C692.917 183.659 692.42 181.841 692.42 179.71C692.42 177.835 692.789 176.315 693.528 175.151C694.266 173.972 695.254 173.048 696.489 172.381C697.725 171.713 699.089 171.216 700.58 170.889C702.086 170.548 703.599 170.278 705.119 170.08C707.107 169.824 708.719 169.632 709.955 169.504C711.205 169.362 712.114 169.128 712.683 168.801C713.265 168.474 713.556 167.906 713.556 167.097V166.926C713.556 164.824 712.981 163.19 711.83 162.026C710.694 160.861 708.968 160.278 706.653 160.278C704.252 160.278 702.37 160.804 701.006 161.855C699.643 162.906 698.684 164.028 698.13 165.222L693.357 163.517C694.21 161.528 695.346 159.98 696.766 158.872C698.201 157.75 699.763 156.969 701.454 156.528C703.158 156.074 704.835 155.847 706.482 155.847C707.533 155.847 708.741 155.974 710.104 156.23C711.482 156.472 712.81 156.976 714.089 157.743C715.381 158.51 716.454 159.668 717.306 161.216C718.158 162.764 718.585 164.838 718.585 167.438V189H713.556V184.568H713.3C712.96 185.278 712.391 186.038 711.596 186.848C710.8 187.658 709.742 188.347 708.421 188.915C707.1 189.483 705.488 189.767 703.585 189.767ZM704.352 185.25C706.34 185.25 708.016 184.859 709.38 184.078C710.758 183.297 711.795 182.288 712.491 181.053C713.201 179.817 713.556 178.517 713.556 177.153V172.551C713.343 172.807 712.874 173.041 712.15 173.254C711.44 173.453 710.616 173.631 709.678 173.787C708.755 173.929 707.853 174.057 706.972 174.17C706.106 174.27 705.403 174.355 704.863 174.426C703.556 174.597 702.335 174.874 701.198 175.257C700.076 175.626 699.167 176.187 698.471 176.94C697.789 177.679 697.448 178.687 697.448 179.966C697.448 181.713 698.094 183.034 699.387 183.929C700.694 184.81 702.349 185.25 704.352 185.25Z" fill="#D9B88F"/>
<line y1="173.5" x2="260" y2="173.5" stroke="#D9B88F"/>
<line x1="763" y1="173.5" x2="1023" y2="173.5" stroke="#D9B88F"/>
</svg>
